<svg width="76" height="76" viewBox="0 0 76 76" fill="none" xmlns="http://www.w3.org/2000/svg">
<g filter="url(#filter0_d)">
<circle cx="38" cy="35" r="30" fill="#D5D7E2"/>
</g>
<path d="M49.6933 24.4566H48.0469V22.8102C48.0469 22.4888 47.7864 22.2283 47.465 22.2283H45.8186V20.5819C45.8186 20.2605 45.5582 20 45.2368 20H26.3055C25.9841 20 25.7236 20.2606 25.7236 20.5819V46.9615C25.7236 47.2829 25.9841 47.5434 26.3055 47.5434H27.9519V49.1898C27.9519 49.5111 28.2123 49.7716 28.5338 49.7716H30.1801V51.418C30.1801 51.7394 30.4406 51.9999 30.762 51.9999H49.6933C50.0147 51.9999 50.2751 51.7393 50.2751 51.418V25.0385C50.2752 24.7171 50.0148 24.4566 49.6933 24.4566ZM26.8874 46.3796V21.1638H44.6548V46.3796H26.8874ZM29.1158 48.6079V47.5434H45.2367C45.5581 47.5434 45.8186 47.2828 45.8186 46.9615V23.3921H46.8831V48.6079L29.1158 48.6079ZM49.1114 50.8362H31.3439V49.7717H47.465C47.7864 49.7717 48.0469 49.5111 48.0469 49.1898V25.6204H49.1114V50.8362Z" fill="white"/>
<path d="M38.9557 25.9744H32.5877C32.2663 25.9744 32.0059 26.2349 32.0059 26.5562C32.0059 26.8776 32.2663 27.1381 32.5877 27.1381H38.9557C39.2771 27.1381 39.5375 26.8776 39.5375 26.5562C39.5375 26.2349 39.2772 25.9744 38.9557 25.9744Z" fill="white"/>
<path d="M41.5905 28.8606H29.953C29.6315 28.8606 29.3711 29.1212 29.3711 29.4425C29.3711 29.7638 29.6315 30.0243 29.953 30.0243H41.5905C41.9119 30.0243 42.1723 29.7638 42.1723 29.4425C42.1723 29.1212 41.9118 28.8606 41.5905 28.8606Z" fill="white"/>
<path d="M41.5905 31.7468H29.953C29.6315 31.7468 29.3711 32.0074 29.3711 32.3287C29.3711 32.65 29.6315 32.9106 29.953 32.9106H41.5905C41.9119 32.9106 42.1723 32.65 42.1723 32.3287C42.1723 32.0074 41.9118 31.7468 41.5905 31.7468Z" fill="white"/>
<path d="M41.5905 34.6328H29.953C29.6315 34.6328 29.3711 34.8934 29.3711 35.2147C29.3711 35.536 29.6315 35.7966 29.953 35.7966H41.5905C41.9119 35.7966 42.1723 35.536 42.1723 35.2147C42.1723 34.8934 41.9118 34.6328 41.5905 34.6328Z" fill="white"/>
<path d="M41.5905 37.519H29.953C29.6315 37.519 29.3711 37.7796 29.3711 38.1009C29.3711 38.4222 29.6315 38.6828 29.953 38.6828H41.5905C41.9119 38.6828 42.1723 38.4222 42.1723 38.1009C42.1723 37.7796 41.9118 37.519 41.5905 37.519Z" fill="white"/>
<path d="M41.5905 40.405H29.953C29.6315 40.405 29.3711 40.6656 29.3711 40.9869C29.3711 41.3082 29.6315 41.5688 29.953 41.5688H41.5905C41.9119 41.5688 42.1723 41.3082 42.1723 40.9869C42.1723 40.6656 41.9118 40.405 41.5905 40.405Z" fill="white"/>
<defs>
<filter id="filter0_d" x="0" y="0" width="76" height="76" filterUnits="userSpaceOnUse" color-interpolation-filters="sRGB">
<feFlood flood-opacity="0" result="BackgroundImageFix"/>
<feColorMatrix in="SourceAlpha" type="matrix" values="0 0 0 0 0 0 0 0 0 0 0 0 0 0 0 0 0 0 127 0"/>
<feOffset dy="3"/>
<feGaussianBlur stdDeviation="4"/>
<feColorMatrix type="matrix" values="0 0 0 0 0.301961 0 0 0 0 0.301961 0 0 0 0 0.301961 0 0 0 0.15 0"/>
<feBlend mode="normal" in2="BackgroundImageFix" result="effect1_dropShadow"/>
<feBlend mode="normal" in="SourceGraphic" in2="effect1_dropShadow" result="shape"/>
</filter>
</defs>
</svg>
