<svg width="76" height="76" viewBox="0 0 76 76" fill="none" xmlns="http://www.w3.org/2000/svg">
<g filter="url(#filter0_d)">
<circle cx="38" cy="35" r="30" fill="#D5D7E2"/>
</g>
<path d="M26.5793 37.0776C24.9123 37.0776 23.5566 38.4337 23.5566 40.1003C23.5566 41.7669 24.9123 43.1229 26.5793 43.1229C28.2462 43.1229 29.6019 41.7669 29.6019 40.1003C29.6019 38.4337 28.2464 37.0776 26.5793 37.0776ZM26.5793 41.6116C25.7462 41.6116 25.068 40.9337 25.068 40.1003C25.068 39.2668 25.7462 38.5889 26.5793 38.5889C27.4124 38.5889 28.0906 39.2668 28.0906 40.1003C28.0906 40.9337 27.4124 41.6116 26.5793 41.6116Z" fill="white"/>
<path d="M34.8936 37.8335H34.5785C34.4028 37.2107 34.155 36.6133 33.8376 36.0473L34.0613 35.824C34.9447 34.941 34.9439 33.5036 34.0598 32.6199C33.6302 32.1903 33.0614 31.9539 32.457 31.9539C32.4563 31.9539 32.4555 31.9539 32.4555 31.9539C31.8512 31.9543 31.2829 32.1905 30.8556 32.6182L30.6319 32.8418C30.0667 32.5248 29.469 32.277 28.8461 32.1013V31.7862C28.8461 30.5373 27.8292 29.5215 26.5792 29.5215C25.3291 29.5215 24.3122 30.5373 24.3122 31.7862V32.1013C23.6894 32.277 23.0916 32.5248 22.5264 32.8418L22.3027 32.6185C21.4194 31.7356 19.9819 31.7363 19.0986 32.62C18.669 33.0498 18.4323 33.62 18.4328 34.2243C18.4328 34.8283 18.669 35.3965 19.0971 35.8238L19.32 36.0475C19.0034 36.6135 18.7555 37.2112 18.5798 37.8337H18.2647C17.0162 37.8337 16 38.8506 16 40.1007C16 41.3507 17.0162 42.3676 18.2647 42.3676H18.5798C18.7555 42.9901 19.0034 43.5878 19.32 44.1538L19.0971 44.3771C18.2137 45.2601 18.2144 46.6975 19.0986 47.5813C19.5282 48.0109 20.097 48.2472 20.7013 48.2472C20.7021 48.2472 20.7021 48.2472 20.7028 48.2472C21.3064 48.2468 21.8747 48.011 22.3027 47.583L22.5264 47.3593C23.0916 47.6763 23.6894 47.9241 24.3122 48.0998V48.4149C24.3122 49.6639 25.3291 50.6796 26.5792 50.6796C27.8292 50.6796 28.8461 49.6639 28.8461 48.4149V48.0998C29.469 47.9241 30.0667 47.6763 30.6319 47.3593L30.8556 47.5826C31.739 48.466 33.1764 48.4644 34.0598 47.5811C34.4894 47.1513 34.7261 46.5812 34.7255 45.9768C34.7255 45.3729 34.4894 44.8046 34.0613 44.3769L33.8376 44.1536C34.155 43.5876 34.4028 42.9903 34.5785 42.3674H34.8936C36.1422 42.3674 37.1583 41.3505 37.1583 40.1005C37.1583 38.8504 36.1422 37.8335 34.8936 37.8335ZM34.8936 40.8561H33.9844C33.6251 40.8561 33.3151 41.1093 33.2435 41.4616C33.0708 42.3162 32.7372 43.1197 32.2532 43.8502C32.0547 44.1498 32.0953 44.5477 32.3492 44.8018L32.9926 45.4456C33.1358 45.588 33.214 45.777 33.214 45.9772C33.2148 46.1778 33.135 46.3679 32.9911 46.5122C32.6968 46.8063 32.2184 46.808 31.9241 46.5133L31.2807 45.8703C31.026 45.6164 30.6276 45.5769 30.3295 45.7751C29.599 46.2583 28.7953 46.5916 27.9409 46.765C27.588 46.836 27.3348 47.146 27.3348 47.5055V48.4146C27.3348 48.837 27.0027 49.168 26.5792 49.168C26.1622 49.168 25.8235 48.83 25.8235 48.4146V47.5055C25.8235 47.1462 25.5704 46.8362 25.2177 46.765C24.363 46.5916 23.5596 46.2583 22.829 45.7751C22.7021 45.6906 22.5566 45.6492 22.4121 45.6492C22.2173 45.6492 22.0239 45.7244 21.8779 45.8703L21.2344 46.5137C21.0912 46.6565 20.9023 46.7355 20.7024 46.7355C20.7017 46.7355 20.7017 46.7355 20.7017 46.7355C20.5011 46.7355 20.3114 46.6565 20.1674 46.5122C19.8731 46.2179 19.8724 45.7388 20.1659 45.4448L20.8086 44.8014C21.0625 44.5475 21.1024 44.1498 20.9046 43.8506C20.4213 43.1197 20.0877 42.3157 19.9151 41.4616C19.8435 41.1093 19.5334 40.8561 19.1741 40.8561H18.2649C17.8495 40.8561 17.5115 40.517 17.5115 40.1005C17.5115 39.6839 17.8495 39.3448 18.2649 39.3448H19.1739C19.5333 39.3448 19.8433 39.0917 19.9149 38.7393C20.0875 37.8851 20.4211 37.0812 20.9044 36.3503C21.1022 36.0511 21.0623 35.6533 20.8084 35.3995L20.1657 34.7553C20.0225 34.6129 19.9443 34.424 19.9443 34.2237C19.9436 34.0231 20.0233 33.8331 20.1672 33.6887C20.461 33.3944 20.9392 33.3925 21.2342 33.6876L21.8777 34.3307C22.1323 34.5849 22.5308 34.6248 22.8289 34.4259C23.5594 33.9426 24.363 33.6094 25.2175 33.436C25.5702 33.3647 25.8233 33.0547 25.8233 32.6954V31.7864C25.8233 31.364 26.1554 31.033 26.579 31.033C26.9959 31.033 27.3346 31.371 27.3346 31.7864V32.6954C27.3346 33.0547 27.5878 33.3647 27.9405 33.436C28.7951 33.6094 29.5986 33.9426 30.3291 34.4259C30.6272 34.6248 31.0258 34.5849 31.2803 34.3307L31.9245 33.6868C32.0669 33.544 32.2558 33.4654 32.4557 33.4654C32.4557 33.4654 32.4557 33.4654 32.4565 33.4654C32.6571 33.4654 32.8468 33.5444 32.9907 33.6887C33.285 33.9831 33.2858 34.4621 32.9922 34.7557L32.3488 35.3992C32.0949 35.6534 32.0545 36.0511 32.2528 36.3507C32.7368 37.0813 33.0704 37.8849 33.2431 38.7393C33.3147 39.0917 33.6247 39.3448 33.984 39.3448H34.8931C35.3085 39.3448 35.6465 39.6839 35.6465 40.1005C35.6465 40.517 35.3091 40.8561 34.8936 40.8561Z" fill="white"/>
<path d="M49.7858 28.987C49.0685 28.5553 48.2243 28.428 47.4089 28.6316C46.5951 28.8345 45.9086 29.3423 45.4771 30.0613C45.0447 30.7805 44.9185 31.6246 45.1214 32.4386C45.4778 33.8647 46.7611 34.8197 48.1691 34.8197C48.4192 34.8197 48.6746 34.7895 48.9285 34.726C50.6087 34.3068 51.6345 32.5992 51.2161 30.919C51.0123 30.105 50.5046 29.419 49.7858 28.987ZM49.5652 32.518C49.3407 32.8907 48.9852 33.154 48.5624 33.2596C47.6923 33.4773 46.8061 32.9445 46.5885 32.0727C46.483 31.6507 46.5486 31.213 46.7723 30.84C46.9967 30.4669 47.3522 30.2036 47.775 30.098C47.9063 30.0651 48.0399 30.0489 48.1721 30.0489C48.4636 30.0489 48.7506 30.1278 49.0075 30.282C49.3808 30.5064 49.6443 30.8623 49.7492 31.2847C49.8544 31.707 49.7894 32.1449 49.5652 32.518Z" fill="white"/>
<path d="M57.2239 31.8388C58.4777 31.5256 59.243 30.2504 58.93 28.9958C58.6171 27.7407 57.3412 26.9754 56.0881 27.2871L55.7383 27.3746C55.3937 26.7672 54.9788 26.2071 54.4979 25.6995L54.6845 25.3893C55.0062 24.8532 55.0999 24.2229 54.9486 23.6152C54.7965 23.0075 54.4174 22.4953 53.8809 22.1732C53.3413 21.8485 52.7126 21.7529 52.1032 21.9057C51.4973 22.057 50.986 22.4362 50.6627 22.9731L50.4768 23.2833C49.8032 23.0974 49.1138 22.9941 48.4165 22.9748L48.3287 22.6236C48.0159 21.3709 46.743 20.6035 45.4861 20.9183C44.2315 21.2311 43.4642 22.5055 43.777 23.7593L43.8641 24.11C43.2575 24.4542 42.6974 24.869 42.1898 25.3496L41.8798 25.1635C41.3432 24.8411 40.7138 24.7459 40.1051 24.8991C39.4977 25.0508 38.9848 25.4299 38.6624 25.9668C38.3384 26.5063 38.2439 27.1375 38.396 27.7445C38.5473 28.3503 38.9265 28.8617 39.4637 29.1846L39.7737 29.3705C39.5871 30.0438 39.4838 30.7335 39.4652 31.4311L39.1141 31.519C38.5075 31.6703 37.9953 32.0493 37.6728 32.5863C37.3504 33.1232 37.2567 33.7538 37.408 34.3614C37.7208 35.6161 38.9975 36.3829 40.2498 36.0705L40.6004 35.983C40.9443 36.59 41.3591 37.1501 41.8401 37.6577L41.6534 37.9679C41.3317 38.5041 41.238 39.1343 41.3893 39.742C41.5414 40.3498 41.9206 40.8619 42.4571 41.184C42.9966 41.5084 43.6261 41.6036 44.2348 41.4515C44.8406 41.3002 45.352 40.921 45.6752 40.3834L45.8611 40.0738C46.5348 40.2596 47.2241 40.363 47.9222 40.3822L48.0092 40.7329C48.1606 41.3402 48.5397 41.852 49.077 42.1745C49.4459 42.3963 49.8598 42.5098 50.2798 42.5098C50.4702 42.5098 50.6622 42.4862 50.8516 42.439C51.4618 42.2869 51.9755 41.9077 52.2972 41.3712C52.6189 40.8355 52.7119 40.2056 52.5606 39.5983L52.4727 39.2476C53.0801 38.9034 53.6402 38.4882 54.1478 38.0076L54.4584 38.1942C54.9941 38.5163 55.6236 38.6089 56.2325 38.458C56.8398 38.3059 57.352 37.9267 57.6737 37.3906C57.9984 36.8514 58.0937 36.2199 57.9416 35.6126C57.7903 35.0067 57.4111 34.4953 56.8738 34.1725L56.5638 33.9866C56.7505 33.3133 56.8538 32.6239 56.8723 31.9259L57.2239 31.8388ZM55.9295 30.6037C55.5811 30.6904 55.3414 31.011 55.3576 31.3701C55.3982 32.2933 55.2624 33.2035 54.9526 34.0754C54.8322 34.4141 54.9673 34.7908 55.2758 34.9761L56.0965 35.4688C56.2876 35.5836 56.4225 35.765 56.4758 35.9794C56.5296 36.1946 56.4958 36.4192 56.3791 36.6127C56.2646 36.8035 56.0825 36.9385 55.8662 36.9924C55.6493 37.047 55.4271 37.0137 55.2367 36.8991L54.4161 36.4062C54.1091 36.222 53.7135 36.2789 53.47 36.5437C52.8443 37.227 52.1041 37.7747 51.2716 38.1712C50.9469 38.3257 50.7765 38.6873 50.8628 39.036L51.0944 39.9644C51.1482 40.1809 51.115 40.4042 51.0015 40.5938C50.887 40.7839 50.7041 40.9186 50.4857 40.9732C50.2709 41.0278 50.0459 40.9938 49.8547 40.8791C49.6643 40.7646 49.5292 40.5833 49.4754 40.3677L49.2444 39.4398C49.1595 39.1022 48.8561 38.8672 48.5108 38.8672C48.4999 38.8672 48.4887 38.8675 48.4776 38.8679C47.5559 38.91 46.6445 38.7719 45.7716 38.4629C45.4344 38.3429 45.0565 38.4776 44.8712 38.7865L44.3789 39.6064C44.2644 39.7976 44.0831 39.9324 43.8683 39.9861C43.6542 40.0407 43.4292 40.0057 43.235 39.8894C43.0438 39.7745 42.9095 39.5928 42.8549 39.3765C42.8011 39.1607 42.8343 38.9371 42.9486 38.747L43.4415 37.9267C43.6266 37.6186 43.5692 37.223 43.3044 36.9803C42.6211 36.3546 42.0734 35.6148 41.6757 34.7811C41.5216 34.4568 41.1636 34.2868 40.8109 34.3731L39.8841 34.6047C39.4273 34.7177 38.9867 34.4494 38.8745 33.9958C38.8199 33.7797 38.8539 33.5553 38.9682 33.3645C39.0825 33.1737 39.2641 33.0394 39.4796 32.9855L40.4079 32.7539C40.7563 32.6668 40.996 32.3462 40.9798 31.9875C40.9392 31.0643 41.075 30.1545 41.3848 29.283C41.5051 28.9439 41.3701 28.5672 41.0616 28.3819L40.2409 27.889C40.0497 27.7741 39.9149 27.5928 39.8608 27.378C39.807 27.1628 39.8416 26.9382 39.9576 26.7455C40.072 26.5543 40.2542 26.4194 40.4712 26.3654C40.6873 26.3112 40.911 26.3454 41.1007 26.4591L41.9213 26.9518C42.2298 27.1373 42.6246 27.0795 42.8674 26.8143C43.4931 26.131 44.2332 25.5833 45.0658 25.1868C45.3905 25.0322 45.5617 24.6703 45.4738 24.3215L45.2428 23.394C45.1313 22.9489 45.4051 22.4963 45.8517 22.3848C46.2973 22.2726 46.7513 22.5454 46.862 22.9899L47.093 23.9178C47.1801 24.2666 47.5056 24.4986 47.8596 24.4901C48.7842 24.4483 49.6934 24.586 50.5649 24.8951C50.9028 25.0158 51.2792 24.8804 51.4652 24.5722L51.9581 23.7516C52.0726 23.5604 52.254 23.4255 52.4687 23.3719C52.6843 23.3184 52.9093 23.3526 53.102 23.4686C53.2932 23.5835 53.4275 23.7652 53.4821 23.9815C53.5359 24.1972 53.5027 24.4209 53.3884 24.611L52.8955 25.4312C52.7104 25.7393 52.7678 26.1349 53.0327 26.3777C53.716 27.0034 54.2636 27.7432 54.6613 28.5768C54.8162 28.9016 55.1763 29.0716 55.5261 28.9849L56.4537 28.7535C56.9067 28.6424 57.3495 28.9072 57.4625 29.362C57.5739 29.808 57.3023 30.2616 56.8574 30.3727L55.9295 30.6037Z" fill="white"/>
<defs>
<filter id="filter0_d" x="0" y="0" width="76" height="76" filterUnits="userSpaceOnUse" color-interpolation-filters="sRGB">
<feFlood flood-opacity="0" result="BackgroundImageFix"/>
<feColorMatrix in="SourceAlpha" type="matrix" values="0 0 0 0 0 0 0 0 0 0 0 0 0 0 0 0 0 0 127 0"/>
<feOffset dy="3"/>
<feGaussianBlur stdDeviation="4"/>
<feColorMatrix type="matrix" values="0 0 0 0 0.301961 0 0 0 0 0.301961 0 0 0 0 0.301961 0 0 0 0.15 0"/>
<feBlend mode="normal" in2="BackgroundImageFix" result="effect1_dropShadow"/>
<feBlend mode="normal" in="SourceGraphic" in2="effect1_dropShadow" result="shape"/>
</filter>
</defs>
</svg>
