<svg width="76" height="76" viewBox="0 0 76 76" fill="none" xmlns="http://www.w3.org/2000/svg">
<g filter="url(#filter0_d)">
<circle cx="38" cy="35" r="30" fill="#7384BB"/>
</g>
<path d="M38.0003 22.1667C35.4621 22.1667 32.9809 22.9194 30.8705 24.3296C28.7601 25.7397 27.1152 27.744 26.1439 30.089C25.1726 32.434 24.9184 35.0143 25.4136 37.5037C25.9088 39.9932 27.131 42.2798 28.9258 44.0746C30.7206 45.8694 33.0072 47.0917 35.4967 47.5868C37.9861 48.082 40.5665 47.8279 42.9114 46.8565C45.2564 45.8852 47.2607 44.2403 48.6709 42.1299C50.081 40.0195 50.8337 37.5383 50.8337 35.0001C50.8337 31.5965 49.4816 28.3323 47.0749 25.9255C44.6682 23.5188 41.4039 22.1667 38.0003 22.1667ZM38.0003 45.5001C35.9236 45.5001 33.8936 44.8843 32.1668 43.7305C30.4401 42.5768 29.0943 40.9369 28.2996 39.0183C27.5049 37.0996 27.2969 34.9884 27.7021 32.9516C28.1072 30.9148 29.1073 29.0439 30.5757 27.5755C32.0442 26.107 33.9151 25.107 35.9519 24.7018C37.9887 24.2967 40.0999 24.5046 42.0185 25.2993C43.9371 26.0941 45.577 27.4399 46.7308 29.1666C47.8845 30.8933 48.5003 32.9234 48.5003 35.0001C48.5003 37.7849 47.3941 40.4556 45.425 42.4247C43.4558 44.3938 40.7851 45.5001 38.0003 45.5001Z" fill="white"/>
<path d="M42.9936 30.7535L37.8136 36.9368L34.0219 34.0668C33.7744 33.8812 33.4633 33.8015 33.157 33.8452C32.8506 33.889 32.5743 34.0526 32.3886 34.3002C32.203 34.5477 32.1232 34.8588 32.167 35.1651C32.2108 35.4715 32.3744 35.7478 32.6219 35.9335L37.2886 39.4335C37.4906 39.585 37.7362 39.6668 37.9886 39.6668C38.16 39.6671 38.3294 39.6296 38.4846 39.557C38.6399 39.4844 38.7773 39.3785 38.8869 39.2468L44.7786 32.2468C44.9766 32.0086 45.0719 31.7014 45.0435 31.3929C45.015 31.0844 44.8652 30.7999 44.6269 30.6018C44.3887 30.4038 44.0815 30.3085 43.773 30.337C43.4645 30.3654 43.18 30.5152 42.9819 30.7535H42.9936Z" fill="white"/>
<defs>
<filter id="filter0_d" x="0" y="0" width="76" height="76" filterUnits="userSpaceOnUse" color-interpolation-filters="sRGB">
<feFlood flood-opacity="0" result="BackgroundImageFix"/>
<feColorMatrix in="SourceAlpha" type="matrix" values="0 0 0 0 0 0 0 0 0 0 0 0 0 0 0 0 0 0 127 0"/>
<feOffset dy="3"/>
<feGaussianBlur stdDeviation="4"/>
<feColorMatrix type="matrix" values="0 0 0 0 0.301961 0 0 0 0 0.301961 0 0 0 0 0.301961 0 0 0 0.15 0"/>
<feBlend mode="normal" in2="BackgroundImageFix" result="effect1_dropShadow"/>
<feBlend mode="normal" in="SourceGraphic" in2="effect1_dropShadow" result="shape"/>
</filter>
</defs>
</svg>
