<svg width="76" height="76" viewBox="0 0 76 76" fill="none" xmlns="http://www.w3.org/2000/svg">
<g filter="url(#filter0_d)">
<circle cx="38" cy="35" r="30" fill="#7384BB"/>
</g>
<g clip-path="url(#clip0)">
<path d="M46.9132 25.5933H44.8601C44.5607 25.5933 44.3178 25.8362 44.3178 26.1356C44.3178 26.4349 44.5607 26.6779 44.8601 26.6779H46.9132C47.0828 26.6779 47.2205 26.816 47.2205 26.9854V48.6076C47.2205 48.7771 47.0828 48.9151 46.9132 48.9151H29.0873C28.9177 48.9151 28.78 48.777 28.78 48.6076V26.9855C28.78 26.816 28.9177 26.6781 29.0873 26.6781H31.3981C31.6975 26.6781 31.9404 26.4351 31.9404 26.1357C31.9404 25.8364 31.6975 25.5934 31.3981 25.5934H29.0873C28.3198 25.5934 27.6953 26.2179 27.6953 26.9857V48.6079C27.6953 49.3757 28.3196 50.0002 29.0873 50.0002H46.9131C47.6806 50.0002 48.305 49.3757 48.305 48.6079V26.9855C48.3052 26.2177 47.6809 25.5933 46.9132 25.5933Z" fill="white"/>
<path d="M44.5085 18H34.7458C34.602 18 34.464 18.0572 34.3623 18.1589L31.1081 21.4134C31.0061 21.5151 30.9492 21.6532 30.9492 21.7969V28.8475C30.9492 29.1469 31.1922 29.3898 31.4915 29.3898H44.5085C44.8078 29.3898 45.0508 29.1469 45.0508 28.8475V18.5423C45.0508 18.243 44.8078 18 44.5085 18ZM43.966 28.305H32.0339V22.0214L34.9705 19.0848H43.966V28.305Z" fill="white"/>
<path d="M34.7459 18C34.4466 18 34.2036 18.243 34.2036 18.5423V21.2542H31.4915C31.1922 21.2542 30.9492 21.4972 30.9492 21.7966C30.9492 22.0959 31.1922 22.3389 31.4915 22.3389H34.7458C35.0451 22.3389 35.2881 22.0959 35.2881 21.7966V18.5423C35.2882 18.243 35.0453 18 34.7459 18Z" fill="white"/>
<path d="M32.576 28.3049H30.4066C30.1072 28.3049 29.8643 28.5479 29.8643 28.8473C29.8643 29.1466 30.1072 29.3896 30.4066 29.3896H32.576C32.8754 29.3896 33.1183 29.1466 33.1183 28.8473C33.1185 28.548 32.8754 28.3049 32.576 28.3049Z" fill="white"/>
<path d="M45.5926 28.3049H43.4232C43.1238 28.3049 42.8809 28.5479 42.8809 28.8473C42.8809 29.1466 43.1238 29.3896 43.4232 29.3896H45.5926C45.892 29.3896 46.1349 29.1466 46.1349 28.8473C46.1351 28.548 45.892 28.3049 45.5926 28.3049Z" fill="white"/>
<path d="M43.9661 31.0171H31.4915C31.1922 31.0171 30.9492 31.26 30.9492 31.5594V34.8136C30.9492 35.113 31.1922 35.356 31.4915 35.356H43.9661C44.2655 35.356 44.5085 35.113 44.5085 34.8136V31.5594C44.5086 31.26 44.2655 31.0171 43.9661 31.0171ZM43.4238 34.2713H32.034V32.1019H43.4238V34.2713Z" fill="white"/>
<path d="M34.2038 36.9832H30.9495C30.6502 36.9832 30.4072 37.2261 30.4072 37.5255V39.6949C30.4072 39.9943 30.6502 40.2372 30.9495 40.2372H34.2038C34.5031 40.2372 34.7461 39.9943 34.7461 39.6949V37.5255C34.7463 37.2261 34.5031 36.9832 34.2038 36.9832ZM33.6615 39.1526H31.4919V38.0678H33.6613V39.1526H33.6615Z" fill="white"/>
<path d="M44.5085 36.9832H41.2542C40.9549 36.9832 40.7119 37.2261 40.7119 37.5255V39.6949C40.7119 39.9943 40.9549 40.2372 41.2542 40.2372H44.5085C44.8078 40.2372 45.0508 39.9943 45.0508 39.6949V37.5255C45.0508 37.2261 44.8078 36.9832 44.5085 36.9832ZM43.966 39.1526H41.7966V38.0678H43.966V39.1526Z" fill="white"/>
<path d="M39.0842 36.9832H36.3724C36.073 36.9832 35.8301 37.2261 35.8301 37.5255V39.6949C35.8301 39.9943 36.073 40.2372 36.3724 40.2372H39.0843C39.3837 40.2372 39.6266 39.9943 39.6266 39.6949V37.5255C39.6265 37.2261 39.3835 36.9832 39.0842 36.9832ZM38.5418 39.1526H36.9147V38.0678H38.5418V39.1526Z" fill="white"/>
<path d="M34.2038 41.322H30.9495C30.6502 41.322 30.4072 41.565 30.4072 41.8643V44.0338C30.4072 44.3331 30.6502 44.5761 30.9495 44.5761H34.2038C34.5031 44.5761 34.7461 44.3331 34.7461 44.0338V41.8643C34.7463 41.5651 34.5031 41.322 34.2038 41.322ZM33.6615 43.4916H31.4919V42.4068H33.6613V43.4916H33.6615Z" fill="white"/>
<path d="M44.508 41.322H36.3724C36.073 41.322 35.8301 41.565 35.8301 41.8643V44.0338C35.8301 44.3331 36.073 44.5761 36.3724 44.5761H44.508C44.8073 44.5761 45.0503 44.3331 45.0503 44.0338V41.8643C45.0503 41.5651 44.8073 41.322 44.508 41.322ZM43.9655 43.4916H36.9147V42.4068H43.9655V43.4916Z" fill="white"/>
<path d="M44.509 45.6609H30.9495C30.6502 45.6609 30.4072 45.9038 30.4072 46.2032C30.4072 46.5026 30.6502 46.7455 30.9495 46.7455H44.5088C44.8082 46.7455 45.0511 46.5026 45.0511 46.2032C45.0513 45.9038 44.8083 45.6609 44.509 45.6609Z" fill="white"/>
</g>
<defs>
<filter id="filter0_d" x="0" y="0" width="76" height="76" filterUnits="userSpaceOnUse" color-interpolation-filters="sRGB">
<feFlood flood-opacity="0" result="BackgroundImageFix"/>
<feColorMatrix in="SourceAlpha" type="matrix" values="0 0 0 0 0 0 0 0 0 0 0 0 0 0 0 0 0 0 127 0"/>
<feOffset dy="3"/>
<feGaussianBlur stdDeviation="4"/>
<feColorMatrix type="matrix" values="0 0 0 0 0.301961 0 0 0 0 0.301961 0 0 0 0 0.301961 0 0 0 0.15 0"/>
<feBlend mode="normal" in2="BackgroundImageFix" result="effect1_dropShadow"/>
<feBlend mode="normal" in="SourceGraphic" in2="effect1_dropShadow" result="shape"/>
</filter>
<clipPath id="clip0">
<rect width="32" height="32" fill="white" transform="translate(22 18)"/>
</clipPath>
</defs>
</svg>
