<svg width="76" height="76" viewBox="0 0 76 76" fill="none" xmlns="http://www.w3.org/2000/svg">
<g filter="url(#filter0_d)">
<circle cx="38" cy="35" r="30" fill="#7384BB"/>
</g>
<path d="M45.01 48H29.4626C27.6836 48 26.2363 46.3207 26.2363 44.2565V27.5388C26.2363 26.6942 26.5198 25.9002 27.0345 25.303L30.8068 20.9261C31.3214 20.3289 32.0058 20 32.7337 20H45.01C46.789 20 48.2363 21.6793 48.2363 23.7435V44.2566C48.2363 46.3207 46.789 48 45.01 48ZM32.7337 21.6589C32.3877 21.6589 32.0623 21.8153 31.8177 22.0991L28.0455 26.476C27.8008 26.7599 27.666 27.1374 27.666 27.5388V44.2565C27.666 45.4058 28.472 46.341 29.4625 46.341H45.0099C46.0005 46.341 46.8065 45.4059 46.8065 44.2565V23.7435C46.8065 22.5942 46.0006 21.659 45.01 21.659L32.7337 21.6589Z" fill="white"/>
<path d="M44.8463 28.5038C44.3883 28.5038 44.0168 28.1324 44.0168 27.6743V26.0078C44.0168 25.7985 43.8465 25.6282 43.6372 25.6282H37.101C36.8918 25.6282 36.7215 25.7985 36.7215 26.0078V27.6743C36.7215 28.1324 36.3501 28.5038 35.892 28.5038C35.4339 28.5038 35.0625 28.1324 35.0625 27.6743V26.0078C35.0625 24.8837 35.9769 23.9692 37.101 23.9692H43.6372C44.7613 23.9692 45.6758 24.8837 45.6758 26.0078V27.6743C45.6758 28.1324 45.3044 28.5038 44.8463 28.5038Z" fill="white"/>
<path d="M44.8797 32.7825H29.1195C28.6615 32.7825 28.29 32.4112 28.29 31.953C28.29 31.4949 28.6615 31.1235 29.1195 31.1235H44.8797C45.3378 31.1235 45.7092 31.4949 45.7092 31.953C45.7092 32.4112 45.3378 32.7825 44.8797 32.7825Z" fill="white"/>
<path d="M44.8797 37.8839H29.1195C28.6615 37.8839 28.29 37.5125 28.29 37.0544C28.29 36.5962 28.6615 36.2249 29.1195 36.2249H44.8797C45.3378 36.2249 45.7092 36.5962 45.7092 37.0544C45.7092 37.5125 45.3378 37.8839 44.8797 37.8839Z" fill="white"/>
<path d="M44.8797 42.9852H29.1195C28.6615 42.9852 28.29 42.6138 28.29 42.1557C28.29 41.6976 28.6615 41.3262 29.1195 41.3262H44.8797C45.3378 41.3262 45.7092 41.6976 45.7092 42.1557C45.7092 42.6138 45.3378 42.9852 44.8797 42.9852Z" fill="white"/>
<defs>
<filter id="filter0_d" x="0" y="0" width="76" height="76" filterUnits="userSpaceOnUse" color-interpolation-filters="sRGB">
<feFlood flood-opacity="0" result="BackgroundImageFix"/>
<feColorMatrix in="SourceAlpha" type="matrix" values="0 0 0 0 0 0 0 0 0 0 0 0 0 0 0 0 0 0 127 0"/>
<feOffset dy="3"/>
<feGaussianBlur stdDeviation="4"/>
<feColorMatrix type="matrix" values="0 0 0 0 0.301961 0 0 0 0 0.301961 0 0 0 0 0.301961 0 0 0 0.15 0"/>
<feBlend mode="normal" in2="BackgroundImageFix" result="effect1_dropShadow"/>
<feBlend mode="normal" in="SourceGraphic" in2="effect1_dropShadow" result="shape"/>
</filter>
</defs>
</svg>
