<svg width="76" height="76" viewBox="0 0 76 76" fill="none" xmlns="http://www.w3.org/2000/svg">
<g filter="url(#filter0_d)">
<circle cx="38" cy="35" r="30" fill="#D5D7E2"/>
</g>
<path fill-rule="evenodd" clip-rule="evenodd" d="M47.9725 33C47.7238 30.75 45.8163 29 43.5 29C42.4428 29 41.4707 29.3646 40.7026 29.9749C39.8341 27.0963 37.1618 25 34 25C30.134 25 27 28.134 27 32C27 32.3758 27.0296 32.7447 27.0866 33.1044C25.3178 33.5176 24 35.1081 24 37C24 39.2091 25.7941 41 27.9968 41H34V43H28.0002C24.687 43 22 40.3137 22 37C22 34.7828 23.2075 32.8416 25.0021 31.803C25.1069 26.9234 29.0953 23 34 23C37.2335 23 40.0687 24.7052 41.6555 27.2654C42.2402 27.0927 42.8593 27 43.5 27C46.2846 27 48.6601 28.7509 49.5858 31.2119C52.1297 31.9075 54 34.2354 54 37C54 40.307 51.3136 43 47.9998 43H42V41H48.0032C50.2106 41 52 39.2046 52 37C52 34.7909 50.2059 33 48.0032 33H47.9725ZM38 32L43 38H40V46H36V38H33L38 32Z" fill="white"/>
<defs>
<filter id="filter0_d" x="0" y="0" width="76" height="76" filterUnits="userSpaceOnUse" color-interpolation-filters="sRGB">
<feFlood flood-opacity="0" result="BackgroundImageFix"/>
<feColorMatrix in="SourceAlpha" type="matrix" values="0 0 0 0 0 0 0 0 0 0 0 0 0 0 0 0 0 0 127 0"/>
<feOffset dy="3"/>
<feGaussianBlur stdDeviation="4"/>
<feColorMatrix type="matrix" values="0 0 0 0 0.301961 0 0 0 0 0.301961 0 0 0 0 0.301961 0 0 0 0.15 0"/>
<feBlend mode="normal" in2="BackgroundImageFix" result="effect1_dropShadow"/>
<feBlend mode="normal" in="SourceGraphic" in2="effect1_dropShadow" result="shape"/>
</filter>
</defs>
</svg>
